<?xml version="1.0" encoding="UTF-8"?>
<!DOCTYPE svg PUBLIC "-//W3C//DTD SVG 1.1//EN" "http://www.w3.org/Graphics/SVG/1.1/DTD/svg11.dtd">
<!-- Creator: CorelDRAW X8 -->
<svg xmlns="http://www.w3.org/2000/svg" xml:space="preserve" width="1000px" height="298px" version="1.1" style="shape-rendering:geometricPrecision; text-rendering:geometricPrecision; image-rendering:optimizeQuality; fill-rule:evenodd; clip-rule:evenodd"
viewBox="0 0 1130 337"
 xmlns:xlink="http://www.w3.org/1999/xlink">
 <defs>
  <style type="text/css">
   <![CDATA[
    .fil0 {fill:#0984E3}
    .fil1 {fill:#0984E3;fill-rule:nonzero}
   ]]>
  </style>
 </defs>
 <g id="Camada_x0020_1">
  <metadata id="CorelCorpID_0Corel-Layer"/>
  <g id="_1891792803312">
   <g>
    <path class="fil0" d="M961 0c93,0 169,76 169,169 0,93 -76,168 -169,168 -93,0 -168,-75 -168,-168 0,-93 75,-169 168,-169zm0 116c0,0 0,0 1,0 -1,0 -1,0 -1,0zm1 0c0,0 0,0 0,0 0,0 0,0 0,0zm0 0c0,0 0,0 0,0 0,0 0,0 0,0zm0 0c0,0 0,0 0,0 0,0 0,0 0,0zm0 0c1,0 1,0 1,0 0,0 0,0 -1,0zm1 0c0,0 0,0 0,0 0,0 0,0 0,0zm0 0c0,0 1,0 1,0 0,0 -1,0 -1,0zm1 0c0,0 0,0 0,0 0,0 0,0 0,0zm0 0c0,0 0,0 0,0 0,0 0,0 0,0zm0 0l1 0 -1 0zm1 0c11,1 21,6 29,13 0,0 0,0 0,0 -8,-7 -18,-12 -29,-13zm-52 49l0 0c0,0 0,0 0,0 0,0 0,0 0,0zm0 0c0,0 0,0 0,0 0,0 0,0 0,0zm0 0c0,0 0,0 0,0 0,0 0,0 0,0zm0 0c0,0 0,1 0,1 0,0 0,-1 0,-1zm0 1c0,0 0,0 0,0 0,0 0,0 0,0zm0 0c0,0 0,0 0,0 0,0 0,0 0,0zm0 0c0,1 0,1 0,1 0,0 0,0 0,-1zm0 1c0,0 0,0 0,0 0,0 0,0 0,0zm0 0c0,0 0,1 0,1 0,0 0,-1 0,-1zm0 1c1,11 5,21 12,29 0,0 0,0 0,0 -7,-8 -11,-18 -12,-29zm115 -73c0,0 1,1 1,1 1,1 2,2 2,2 0,0 -1,-1 -1,-2 -1,0 -1,0 -1,0 0,0 0,0 0,0 0,0 -1,-1 -1,-1zm30 66c0,0 0,0 0,0 0,0 0,0 0,0l0 0zm0 0l0 0 0 0zm0 0c0,0 0,0 0,0 0,0 0,0 0,0zm0 1c0,0 0,0 0,0 0,0 0,0 0,0zm0 0c0,0 0,0 0,0 0,0 0,0 0,0zm0 0c0,0 0,0 0,0 0,0 0,0 0,0zm0 0c0,1 0,1 0,1 0,0 0,0 0,-1zm0 1c0,0 0,0 0,0 0,0 0,0 0,0zm0 0c0,0 0,0 0,0 0,0 0,0 0,0zm0 0c0,0 0,1 0,1 0,0 0,-1 0,-1zm0 1l0 0 0 0zm0 0l0 0 0 0zm-61 -32c7,8 12,18 12,29 0,-11 -5,-21 -12,-29l0 0zm12 29c0,0 0,0 0,0 0,0 0,0 0,0zm0 0c0,0 0,1 0,1 0,0 0,-1 0,-1zm0 1c0,0 0,0 0,0 0,0 0,0 0,0zm0 0c0,0 0,0 0,0 0,0 0,0 0,0zm0 0c0,1 0,1 0,1 0,0 0,0 0,-1zm0 1c0,0 0,0 0,0 0,0 0,0 0,0zm0 0c0,0 0,0 0,0 0,0 0,0 0,0zm0 0c0,0 0,1 0,1 0,0 0,-1 0,-1zm0 1c0,0 0,0 0,0 0,0 0,0 0,0zm0 0c0,0 0,0 0,0 0,0 0,0 0,0zm0 0l0 1 0 -1zm0 1c0,26 -21,48 -48,48l0 0 0 0c27,0 48,-22 48,-48zm-80 35c0,0 0,0 0,0 8,7 18,12 29,13 -11,-1 -21,-6 -29,-13zm29 13c0,0 0,0 0,0 0,0 0,0 0,0zm0 0c0,0 0,0 0,0 0,0 0,0 0,0zm0 0c1,0 1,0 1,0 0,0 0,0 -1,0zm2 0c0,0 0,0 0,0 0,0 0,0 0,0zm0 0c0,0 0,0 0,0 0,0 0,0 0,0zm0 0c0,0 0,0 0,0 0,0 0,0 0,0zm0 0c0,0 1,0 1,0 0,0 -1,0 -1,0zm1 0c0,0 0,0 0,0 0,0 0,0 0,0zm1 -145c0,0 0,0 0,0 0,0 0,0 0,0zm0 0l0 0 0 0zm0 0l0 0 0 0zm1 0c0,0 0,0 0,0 0,0 0,0 0,0zm0 0c0,0 0,0 0,0 0,0 0,0 0,0zm0 0c0,0 0,0 0,0 0,0 0,0 0,0zm0 0c1,0 1,0 1,0 0,0 0,0 -1,0zm1 0c0,0 0,0 0,0 0,0 0,0 0,0zm0 0c0,0 0,0 0,0 0,0 0,0 0,0l0 0zm0 0l0 0 0 0zm1 0l0 0 0 0zm-3 0c-53,0 -96,43 -96,96l0 144c26,0 48,-22 48,-48l0 -13c14,8 30,13 48,13 53,0 96,-43 96,-96 0,-53 -43,-96 -96,-96zm-1 145c-26,0 -48,-22 -48,-48 0,-27 22,-49 48,-49 27,0 48,22 48,49 0,26 -21,48 -48,48z"/>
   </g>
   <g id="_1891792803568">
    <g>
     <path class="fil1" d="M468 195c-3,1 -7,1 -10,1 -16,0 -28,-12 -28,-28 0,-15 12,-28 28,-28 12,0 21,7 26,16 1,4 1,5 1,5 0,0 -10,6 -16,-2 -4,-4 -9,-6 -15,-5 -7,3 -12,10 -10,18 2,7 10,12 17,10l0 0 54 -14c0,-31 -26,-56 -57,-56 -31,0 -57,25 -57,56 0,31 26,57 57,57 15,0 29,-6 40,-17 0,0 -11,-20 -30,-13zm52 -25l0 0 0 0zm0 0c0,0 0,0 0,0 0,0 0,0 0,0zm0 0c0,0 0,0 0,0 0,0 0,0 0,0zm0 0c0,0 0,0 0,0 0,0 0,0 0,0l0 0zm0 0c0,0 0,0 0,0 0,0 0,0 0,0zm0 -1c0,1 0,1 0,1 0,0 0,-1 0,-1zm0 0c0,0 0,0 0,0 0,0 0,0 0,0zm0 0c0,0 0,0 0,0 0,0 0,0 0,0zm0 0l0 0 0 0zm0 0c0,0 0,0 0,0 0,0 0,0 0,0zm0 0l0 0 0 0zm-119 1c0,0 0,0 0,0 0,0 0,0 0,0zm0 0c0,0 0,0 0,0 0,0 0,0 0,0l0 0zm0 0c0,0 0,0 0,0 0,0 0,0 0,0zm0 0c0,0 0,0 0,0 0,0 0,0 0,0zm0 -1c0,0 0,1 0,1 0,0 0,-1 0,-1zm0 0c0,0 0,0 0,0 0,0 0,0 0,0zm0 0c0,0 0,0 0,0 0,0 0,0 0,0zm0 0c0,0 0,0 0,0 0,0 0,0 0,0zm0 0c0,0 0,0 0,0 0,0 0,0 0,0zm0 0l0 0 0 0zm0 -1l0 0 0 0zm59 -56l0 0 0 0zm0 0c0,0 0,0 0,0 0,0 0,0 0,0zm0 0c0,0 0,0 0,0 0,0 0,0 0,0zm0 0c0,0 0,0 0,0 0,0 0,0 0,0zm-1 0c0,0 0,0 0,0 0,0 0,0 0,0zm0 0c0,0 0,0 0,0 0,0 0,0 0,0zm0 0c0,0 0,0 0,0 0,0 0,0 0,0zm0 0c0,0 0,0 0,0 0,0 0,0 0,0zm0 0c0,0 0,0 0,0 0,0 0,0 0,0zm-1 0c0,0 0,0 0,0 0,0 0,0 0,0zm0 0l0 0 0 0zm27 49c0,0 0,0 0,0 0,0 0,0 0,0zm-15 -1c0,0 0,0 0,0 2,2 5,3 7,3 5,0 8,-2 8,-2 0,0 -3,2 -8,2 -2,0 -5,-1 -7,-3zm14 -4c0,0 0,0 0,0 0,0 0,0 0,0zm0 0c0,0 0,0 0,0 0,0 0,0 0,0zm-5 -7c2,2 3,5 5,7 -2,-2 -3,-5 -5,-7 0,0 0,0 0,0zm-10 10c0,0 0,0 0,0 0,0 0,0 0,0 0,0 0,0 0,0zm-11 37c0,0 0,0 0,0 0,0 0,0 0,0zm0 0c0,0 0,0 0,0 0,0 0,0 0,0zm-1 0c0,0 0,0 1,0 -1,0 -1,0 -1,0zm0 0c0,0 0,0 0,0 0,0 0,0 0,0zm0 0c0,0 0,0 0,0 0,0 0,0 0,0zm0 0c0,0 0,0 0,0 0,0 0,0 0,0zm0 0c0,0 0,0 0,0 0,0 0,0 0,0zm0 0l0 0 0 0zm-1 0c0,0 0,0 1,0 -1,0 -1,0 -1,0zm0 0c0,0 0,0 0,0 0,0 0,0 0,0zm0 0c0,0 0,0 0,0 0,0 0,0 0,0zm0 0l0 0c0,0 0,0 0,0zm25 -2c0,0 0,0 0,0 0,0 0,0 0,0zm0 0c0,0 0,0 0,0 0,0 0,0 0,0zm0 0c0,0 0,0 0,0 0,0 0,0 0,0zm-1 0c0,0 0,0 0,0 0,0 0,0 0,0zm0 0c0,0 0,0 0,0 0,0 0,0 0,0zm0 0c0,0 0,0 0,0 0,0 0,0 0,0zm0 0c0,0 0,0 0,0 0,0 0,0 0,0zm-4 -1c-3,0 -5,1 -8,2 -3,1 -6,1 -10,1l0 0 0 0 0 0 0 0c4,0 7,0 10,-1 3,-1 5,-2 8,-2 1,0 3,0 4,1 -1,-1 -3,-1 -4,-1zm-37 -4c0,0 0,0 0,0 5,4 10,7 17,7 -7,0 -12,-3 -17,-7zm28 -32c0,1 1,1 1,1 0,0 -1,0 -1,-1zm-37 12c0,7 3,13 7,18l0 0c-4,-5 -7,-11 -7,-18zm0 0c0,0 0,0 0,0 0,0 0,0 0,0zm0 0c0,0 0,0 0,0 0,0 0,0 0,0zm0 0c0,0 0,0 0,0 0,0 0,0 0,0zm0 -1c0,0 0,0 0,0 0,0 0,0 0,0zm0 0l0 0c0,0 0,0 0,0 0,0 0,0 0,0zm29 -28c7,0 13,3 18,7 0,0 0,0 0,0 -5,-4 -11,-7 -18,-7zm0 0c0,0 0,0 0,0 0,0 0,0 0,0zm0 0c0,0 0,0 0,0 0,0 0,0 0,0zm-1 0c0,0 0,0 1,0 -1,0 -1,0 -1,0zm0 0c0,0 0,0 0,0 0,0 0,0 0,0zm0 0l0 0 0 0zm57 28l0 0 0 0zm0 0c0,0 0,0 0,0 0,0 0,0 0,0zm0 0c0,0 0,0 0,0 0,0 0,0 0,0zm0 -1c0,0 0,0 0,0 0,0 0,0 0,0zm0 0c0,0 0,0 0,0 0,0 0,0 0,0zm0 0c0,0 0,0 0,0 0,0 0,0 0,0zm0 0c0,0 0,0 0,0 0,0 0,0 0,0zm0 0c0,0 0,0 0,0 0,0 0,0 0,0zm0 -1c0,0 0,0 0,0 0,0 0,0 0,0zm0 0c0,0 0,0 0,0 0,0 0,0 0,0l0 0zm0 0l0 0 0 0zm0 0l0 0 0 0zm-18 -39c0,1 1,1 1,1 0,1 1,1 1,1 0,0 -1,0 -1,-1l0 0c0,0 0,0 0,0 0,0 0,0 0,0l0 0c0,0 -1,-1 -1,-1zm-50 50c0,0 1,1 1,1 0,0 1,1 1,1 0,0 -1,-1 -1,-1 0,0 -1,-1 -1,-1zm11 48l0 0 0 0zm0 0l0 0 0 0zm-1 0c0,0 0,0 0,0 0,0 0,0 0,0zm0 0c0,0 0,0 0,0 0,0 0,0 0,0zm0 0c0,0 0,0 0,0 0,0 0,0 0,0zm0 0c0,0 0,0 0,0 0,0 0,0 0,0zm0 0c0,0 0,0 0,0 0,0 0,0 0,0zm0 0l0 0 0 0zm-1 0c0,0 0,0 0,0 0,0 0,0 0,0zm0 0l0 0 0 0 0 0zm35 -25c1,0 1,1 1,1 1,0 1,0 1,1 0,-1 -1,-2 -2,-2z"/>
    </g>
    <g>
     <path class="fil1" d="M640 168c0,32 26,57 57,57 31,0 56,-25 56,-57 0,-31 -25,-56 -56,-56 -31,0 -57,25 -57,56zm29 0c0,-15 12,-28 28,-28 16,0 28,13 28,28 0,16 -12,29 -28,29 -16,0 -28,-13 -28,-29zm-29 2l0 0 0 0zm0 0l0 0 0 0zm0 0c0,0 0,0 0,0 0,0 0,0 0,0zm0 0l0 0 0 0zm0 -1l0 1 0 -1zm0 0c0,0 0,0 0,0 0,0 0,0 0,0zm0 0l0 0 0 0zm0 0c0,0 0,0 0,0 0,0 0,0 0,0zm0 0l0 0 0 0zm0 0l0 0 0 0zm59 -57l0 0 0 0zm0 0l0 0 0 0zm-1 0c0,0 0,0 0,0 0,0 0,0 0,0zm0 0c0,0 0,0 0,0 0,0 0,0 0,0zm0 0l0 0 0 0zm0 0c0,0 0,0 0,0 0,0 0,0 0,0zm0 0l0 0 0 0zm-1 0c0,0 0,0 1,0 -1,0 -1,0 -1,0zm0 0l0 0 0 0zm0 0l0 0 0 0zm0 85c0,0 0,0 0,0 0,0 0,0 0,0zm-1 0c0,0 0,0 1,0 -1,0 -1,0 -1,0zm0 0c0,0 0,0 0,0l0 0zm0 0c0,0 0,0 0,0 0,0 0,0 0,0zm0 0c0,0 0,0 0,0 0,0 0,0 0,0zm0 0c0,0 0,0 0,0l0 0zm0 0c0,0 0,0 0,0 0,0 0,0 0,0zm-1 0c0,0 0,0 1,0 -1,0 -1,0 -1,0zm0 0c0,0 0,0 0,0 0,0 0,0 0,0zm0 0c0,0 0,0 0,0 0,0 0,0 0,0zm0 0c0,0 0,0 0,0 0,0 0,0 0,0zm0 0c0,0 0,0 0,0l0 0zm-17 -8c0,0 0,0 0,0 4,4 10,7 17,8 -7,-1 -13,-4 -17,-8zm47 -21c0,16 -12,29 -28,29l0 0 0 0c16,0 28,-13 28,-29zm0 0c0,0 0,0 0,0 0,0 0,0 0,0zm0 0c0,0 0,0 0,0 0,0 0,0 0,0zm0 0c0,0 0,0 0,0 0,0 0,0 0,0zm0 0c0,0 0,0 0,0 0,0 0,0 0,0zm0 0c0,0 0,0 0,0 0,0 0,0 0,0zm0 -1c0,0 0,0 0,0 0,0 0,0 0,0zm0 0l0 0c0,0 0,0 0,0zm0 0c0,0 0,0 0,0 0,0 0,0 0,0zm0 0c0,0 0,0 0,0 0,0 0,0 0,0zm0 0c0,0 0,0 0,0 0,0 0,0 0,0zm0 0c0,0 0,0 0,0 0,0 0,0 0,0zm0 -1c0,0 0,0 0,0 0,0 0,0 0,0zm0 0c0,0 0,0 0,0 0,0 0,0 0,0zm0 0c0,0 0,0 0,0 0,0 0,0 0,0zm0 -1c0,1 0,1 0,1 0,0 0,0 0,-1zm0 0l0 0 0 0zm0 0c0,0 0,0 0,0 0,0 0,0 0,0zm-7 -16c4,5 6,10 7,16 -1,-6 -3,-11 -7,-16l0 0 0 0zm-49 25c1,5 4,10 7,13 0,0 0,0 0,0 -3,-3 -6,-8 -7,-13zm0 0c0,0 0,0 0,0 0,0 0,0 0,0zm0 0c0,0 0,0 0,0 0,0 0,0 0,0zm0 -1c0,0 0,1 0,1 0,0 0,-1 0,-1zm0 0c0,0 0,0 0,0 0,0 0,0 0,0zm0 0c0,0 0,0 0,0 0,0 0,0 0,0zm0 0c0,0 0,0 0,0l0 0zm0 0c0,0 0,0 0,0 0,0 0,0 0,0zm0 -1c0,0 0,1 0,1 0,0 0,-1 0,-1zm0 0c0,0 0,0 0,0 0,0 0,0 0,0zm0 0c0,0 0,0 0,0 0,0 0,0 0,0zm0 0c0,0 0,0 0,0l0 0zm0 0c0,0 0,0 0,0 0,0 0,0 0,0zm0 -1c0,0 0,1 0,1 0,0 0,-1 0,-1zm0 0l0 0 0 0zm0 0c0,0 0,0 0,0 0,0 0,0 0,0zm0 0c0,0 0,0 0,0 0,0 0,0 0,0zm0 0c0,0 0,0 0,0 0,0 0,0 0,0zm0 0c0,0 0,0 0,0 0,0 0,0 0,0zm0 -1c0,0 0,1 0,1 0,0 0,-1 0,-1zm0 0c0,0 0,0 0,0 0,0 0,0 0,0zm0 0c0,0 0,0 0,0 0,0 0,0 0,0zm0 0c0,0 0,0 0,0 0,0 0,0 0,0zm0 0c0,0 0,0 0,0 0,0 0,0 0,0zm0 -1c0,0 0,1 0,1 0,0 0,-1 0,-1zm0 0c0,0 0,0 0,0 0,0 0,0 0,0zm0 0c0,0 0,0 0,0 0,0 0,0 0,0zm0 0c0,0 0,0 0,0 0,0 0,0 0,0zm0 0c0,0 0,0 0,0 0,0 0,0 0,0zm0 0c0,0 0,0 0,0 0,0 0,0 0,0zm0 -1l0 0c0,0 0,0 0,1 0,-1 0,-1 0,-1zm30 -28c6,1 12,3 17,7l0 0c-5,-4 -11,-6 -17,-7zm0 0c0,0 0,0 0,0 0,0 0,0 0,0zm-1 0c0,0 0,0 1,0 -1,0 -1,0 -1,0zm0 0c0,0 0,0 0,0 0,0 0,0 0,0zm0 0c0,0 0,0 0,0 0,0 0,0 0,0zm-1 0l1 0c0,0 -1,0 -1,0zm0 0l0 0 0 0zm0 0c0,0 0,0 0,0 0,0 0,0 0,0zm0 0c0,0 0,0 0,0 0,0 0,0 0,0zm0 85l0 0 0 0zm-1 0c0,0 0,0 1,0 -1,0 -1,0 -1,0zm0 0c0,0 0,0 0,0 0,0 0,0 0,0zm0 0c0,0 0,0 0,0 0,0 0,0 0,0zm0 0c0,0 0,0 0,0 0,0 0,0 0,0zm0 0c0,0 0,0 0,0 0,0 0,0 0,0zm0 0c0,0 0,0 0,0 0,0 0,0 0,0zm-1 0c0,0 0,0 0,0 0,0 0,0 0,0zm0 0l0 0 0 0zm0 0c0,0 0,0 0,0 0,0 0,0 0,0zm58 -57l0 0 0 0zm0 0c0,0 0,0 0,0 0,0 0,0 0,0zm0 0c0,0 0,0 0,0 0,0 0,0 0,0zm0 0c0,0 0,0 0,0 0,0 0,0 0,0zm0 -1c0,0 0,0 0,0 0,0 0,0 0,0zm0 0c0,0 0,0 0,0 0,0 0,0 0,0zm0 0c0,0 0,0 0,0 0,0 0,0 0,0zm0 0l0 0 0 0zm0 0c0,0 0,0 0,0 0,0 0,0 0,0zm0 -1l0 0 0 0zm-97 41c1,1 1,2 2,2 0,0 -1,0 -1,-1 0,0 -1,0 -1,-1zm80 -80c0,1 1,1 1,1 0,1 1,1 1,1 0,0 0,0 0,0 0,0 0,0 0,0 -1,0 -1,0 -1,0 0,0 0,0 0,0 0,0 0,0 0,0 0,0 0,0 0,0 0,0 0,0 0,0 0,0 0,0 0,0 0,0 0,0 0,0 0,-1 -1,-1 -1,-2z"/>
    </g>
    <g>
     <path class="fil1" d="M604 112l0 7c-8,-4 -18,-7 -28,-7 -31,0 -56,25 -56,56 0,32 25,57 56,57 31,0 57,-25 57,-57l0 -85c-16,0 -29,13 -29,29zm-28 85c-15,0 -28,-13 -28,-29 0,-15 13,-28 28,-28 16,0 28,13 28,28 0,16 -12,29 -28,29zm0 0c0,0 0,0 0,0 0,0 0,0 0,0zm0 0c0,0 0,0 0,0 0,0 0,0 0,0zm0 0c0,0 0,0 0,0 0,0 0,0 0,0zm-1 0c0,0 0,0 0,0 0,0 0,0 0,0zm0 0c0,0 0,0 0,0 0,0 0,0 0,0zm-1 0c1,0 1,0 1,0 0,0 0,0 -1,0zm-17 -8l0 0c5,5 11,7 17,8 -6,-1 -12,-3 -17,-8zm47 -21c0,16 -12,29 -28,29l0 0 0 0c16,0 28,-13 28,-29zm0 0c0,0 0,0 0,0 0,0 0,0 0,0zm0 0c0,0 0,0 0,0 0,0 0,0 0,0zm0 0c0,0 0,0 0,0 0,0 0,0 0,0zm0 0c0,0 0,0 0,0 0,0 0,0 0,0zm0 0c0,0 0,0 0,0 0,0 0,0 0,0zm0 -1c0,0 0,0 0,1 0,-1 0,-1 0,-1zm-7 -18c4,5 7,11 7,18 0,-7 -3,-13 -7,-18 0,0 0,0 0,0zm-49 21c0,7 3,13 7,17 0,0 0,0 0,0 -4,-4 -7,-10 -7,-17zm0 0c0,0 0,0 0,0 0,0 0,0 0,0zm0 0c0,0 0,0 0,0 0,0 0,0 0,0zm0 0c0,0 0,0 0,0 0,0 0,0 0,0zm0 -1c0,1 0,1 0,1 0,0 0,0 0,-1zm0 0c0,0 0,0 0,0 0,0 0,0 0,0zm0 0c0,0 0,0 0,0 0,0 0,0 0,0zm0 0c0,0 0,0 0,0 0,0 0,0 0,0zm0 0c0,0 0,0 0,0 0,0 0,0 0,0zm0 0c0,0 0,0 0,0 0,0 0,0 0,0zm0 -1l0 0 0 1 0 -1zm37 -27c4,2 7,4 10,6 0,0 0,0 0,0 -3,-2 -6,-4 -10,-6zm0 0c0,0 0,0 0,0 0,0 0,0 0,0zm0 0c0,0 0,0 0,0 0,0 0,0 0,0zm-1 0c0,0 0,0 1,0 -1,0 -1,0 -1,0zm0 0c0,0 0,0 0,0 0,0 0,0 0,0zm0 0c0,0 0,0 0,0 0,0 0,0 0,0zm0 0c0,0 0,0 0,0 0,0 0,0 0,0zm0 0c0,0 0,0 0,0 0,0 0,0 0,0zm0 0c0,0 0,0 0,0 0,0 0,0 0,0zm-1 0c1,0 1,0 1,0 0,0 0,0 -1,0zm0 0l0 0c0,0 0,0 0,0zm0 0c0,0 0,0 0,0 0,0 0,0 0,0zm0 0c0,0 0,0 0,0 0,0 0,0 0,0zm0 0c0,0 0,0 0,0 0,0 0,0 0,0zm0 0c0,0 0,0 0,0 0,0 0,0 0,0zm0 0c0,0 0,0 0,0 0,0 0,0 0,0zm-1 0c0,0 0,0 0,0 0,0 0,0 0,0zm0 0c0,0 0,0 0,0 0,0 0,0 0,0zm0 0c0,0 0,0 0,0 0,0 0,0 0,0zm0 0c0,0 0,0 0,0 0,0 0,0 0,0zm0 0c0,0 0,0 0,0 0,0 0,0 0,0zm0 0c0,0 0,0 0,0 0,0 0,0 0,0zm-1 0c0,0 0,0 0,0 0,0 0,0 0,0zm0 0c0,0 0,0 0,0 0,0 0,0 0,0zm0 -1c0,0 0,0 0,1 0,-1 0,-1 0,-1zm0 0c0,0 0,0 0,0 0,0 0,0 0,0zm0 0c0,0 0,0 0,0 0,0 0,0 0,0zm0 0c0,0 0,0 0,0 0,0 0,0 0,0zm-1 0c0,0 0,0 1,0 -1,0 -1,0 -1,0zm0 0c0,0 0,0 0,0 0,0 0,0 0,0zm0 0c0,0 0,0 0,0 0,0 0,0 0,0zm0 0c0,0 0,0 0,0 0,0 0,0 0,0zm0 0c0,0 0,0 0,0 0,0 0,0 0,0zm0 0c0,0 0,0 0,0 0,0 0,0 0,0zm-1 0c0,0 0,0 1,0 -1,0 -1,0 -1,0zm0 0c0,0 0,0 0,0 0,0 0,0 0,0zm0 0c0,0 0,0 0,0 0,0 0,0 0,0zm0 0c0,0 0,0 0,0 0,0 0,0 0,0zm0 0c0,0 0,0 0,0 0,0 0,0 0,0zm0 0c0,0 0,0 0,0 0,0 0,0 0,0zm-1 0c0,0 0,0 1,0 -1,0 -1,0 -1,0zm0 0c0,0 0,0 0,0 0,0 0,0 0,0zm0 0c0,0 0,0 0,0 0,0 0,0 0,0zm0 0c0,0 0,0 0,0 0,0 0,0 0,0zm0 0c0,0 0,0 0,0 0,0 0,0 0,0zm0 0c0,0 0,0 0,0 0,0 0,0 0,0zm-1 0c0,0 0,0 1,0 -1,0 -1,0 -1,0zm0 0c0,0 0,0 0,0 0,0 0,0 0,0zm0 0c0,0 0,0 0,0 0,0 0,0 0,0zm0 0c0,0 0,0 0,0 0,0 0,0 0,0zm0 0c0,0 0,0 0,0 0,0 0,0 0,0zm0 0c0,0 0,0 0,0 0,0 0,0 0,0zm-1 0c0,0 0,0 1,0 -1,0 -1,0 -1,0zm0 0c0,0 0,0 0,0 0,0 0,0 0,0zm0 85l0 0 0 0zm0 0l0 0 0 0zm0 0c0,0 0,0 0,0 0,0 0,0 0,0zm-1 0l0 0 0 0zm0 0c0,0 0,0 0,0 0,0 0,0 0,0zm0 0c0,0 0,0 0,0 0,0 0,0 0,0zm0 0c0,0 0,0 0,0 0,0 0,0 0,0zm0 0c0,0 0,0 0,0 0,0 0,0 0,0zm-1 0c0,0 0,0 0,0 0,0 0,0 0,0zm0 0l0 0 0 0zm0 0l0 0 0 0zm0 0l0 0 0 0zm-39 -18c1,1 1,2 2,2 0,0 0,0 -1,-1 0,0 0,0 -1,-1zm98 -124l0 0c-1,0 -2,1 -2,1l0 2c0,0 1,0 2,0l0 -3z"/>
    </g>
    <g>
     <path class="fil1" d="M298 168c0,-31 -25,-56 -57,-56 -31,0 -56,25 -56,56 0,32 25,57 56,57 32,0 57,-25 57,-57zm-28 0c0,16 -13,29 -29,29 -15,0 -28,-13 -28,-29 0,-15 13,-28 28,-28 16,0 29,13 29,28zm-85 2l0 0 0 0zm0 0c0,0 0,0 0,0 0,0 0,0 0,0zm0 0c0,0 0,0 0,0 0,0 0,0 0,0zm0 0c0,0 0,0 0,0 0,0 0,0 0,0zm0 0c0,0 0,0 0,0 0,0 0,0 0,0zm0 -1c0,0 0,1 0,1 0,0 0,-1 0,-1zm0 0c0,0 0,0 0,0 0,0 0,0 0,0zm0 0c0,0 0,0 0,0 0,0 0,0 0,0zm0 0c0,0 0,0 0,0 0,0 0,0 0,0zm0 0c0,0 0,0 0,0 0,0 0,0 0,0zm0 0l0 0 0 0zm58 -57l0 0 0 0zm0 0c0,0 0,0 0,0 0,0 0,0 0,0l0 0zm0 0c0,0 0,0 0,0 0,0 0,0 0,0zm0 0c0,0 0,0 0,0 0,0 0,0 0,0zm0 0c0,0 0,0 0,0 0,0 0,0 0,0zm0 0c0,0 0,0 0,0 0,0 0,0 0,0zm-1 0c0,0 0,0 0,0 0,0 0,0 0,0zm0 0c0,0 0,0 0,0 0,0 0,0 0,0zm0 0l0 0 0 0zm0 0l0 0 0 0zm0 0c0,0 0,0 0,0 0,0 0,0 0,0zm-1 85c0,0 0,0 0,0 0,0 0,0 0,0zm0 0c0,0 0,0 0,0 0,0 0,0 0,0zm0 0c0,0 0,0 0,0 0,0 0,0 0,0zm0 0c0,0 0,0 0,0 0,0 0,0 0,0zm-1 0c0,0 0,0 1,0 -1,0 -1,0 -1,0zm0 0c0,0 0,0 0,0 0,0 0,0 0,0zm0 0c0,0 0,0 0,0 0,0 0,0 0,0zm-1 0c0,0 0,0 1,0 -1,0 -1,0 -1,0zm-17 -8c0,0 0,0 0,0 5,4 11,7 17,8 -6,-1 -12,-4 -17,-8zm48 -21c0,16 -13,29 -29,29l0 0 0 0c16,0 29,-13 29,-29zm0 0c0,0 0,0 0,0 0,0 0,0 0,0zm0 0c0,0 0,0 0,0 0,0 0,0 0,0zm0 0c0,0 0,0 0,0 0,0 0,0 0,0zm0 0c0,0 0,0 0,0 0,0 0,0 0,0zm0 0c0,0 0,0 0,0 0,0 0,0 0,0zm0 -1c0,0 0,0 0,1 0,-1 0,-1 0,-1zm0 0c0,0 0,0 0,0 0,0 0,0 0,0zm0 0c0,0 0,0 0,0 0,0 0,0 0,0zm0 0c0,0 0,0 0,0 0,0 0,0 0,0zm0 -1c0,1 0,1 0,1 0,0 0,0 0,-1zm0 0c0,0 0,0 0,0 0,0 0,0 0,0zm-8 -17c4,5 7,11 8,17 -1,-6 -3,-12 -8,-17 0,0 0,0 0,0zm-49 21c1,7 3,13 7,17l0 0c-4,-4 -6,-10 -7,-17zm0 0c0,0 0,0 0,0 0,0 0,0 0,0zm0 0c0,0 0,0 0,0 0,0 0,0 0,0zm0 0c0,0 0,0 0,0 0,0 0,0 0,0zm0 -1c0,1 0,1 0,1 0,0 0,0 0,-1zm0 0c0,0 0,0 0,0 0,0 0,0 0,0zm0 0c0,0 0,0 0,0 0,0 0,0 0,0zm0 0l0 0 0 0zm0 0c0,0 0,0 0,0 0,0 0,0 0,0zm0 0c0,0 0,0 0,0 0,0 0,0 0,0zm0 -1l0 0c0,0 0,0 0,1 0,-1 0,-1 0,-1zm33 -28c5,1 10,4 14,7l0 0c-4,-3 -9,-6 -14,-7zm0 0c0,0 0,0 0,0 0,0 0,0 0,0zm0 0c0,0 0,0 0,0 0,0 0,0 0,0zm-1 0c0,0 0,0 1,0 -1,0 -1,0 -1,0zm0 0c0,0 0,0 0,0 0,0 0,0 0,0zm0 0c0,0 0,0 0,0 0,0 0,0 0,0zm-1 0c0,0 1,0 1,0 0,0 -1,0 -1,0zm0 0c0,0 0,0 0,0 0,0 0,0 0,0zm0 0c0,0 0,0 0,0 0,0 0,0 0,0zm0 0c0,0 0,0 0,0 0,0 0,0 0,0zm0 0c0,0 0,0 0,0 0,0 0,0 0,0zm0 0l0 0 0 0zm-1 0c0,0 1,0 1,0 0,0 -1,0 -1,0zm0 0c0,0 0,0 0,0 0,0 0,0 0,0zm0 0c0,0 0,0 0,0 0,0 0,0 0,0zm0 0c0,0 0,0 0,0 0,0 0,0 0,0zm0 0c0,0 0,0 0,0 0,0 0,0 0,0zm-1 0c0,0 1,0 1,0 0,0 -1,0 -1,0zm0 0c0,0 0,0 0,0 0,0 0,0 0,0zm0 0c0,0 0,0 0,0 0,0 0,0 0,0zm0 0l0 0c0,0 0,0 0,0zm0 0c0,0 0,0 0,0 0,0 0,0 0,0zm0 0c0,0 0,0 0,0 0,0 0,0 0,0zm-1 0c0,0 1,0 1,0 0,0 -1,0 -1,0zm0 85l0 0 0 0zm0 0l0 0 0 0zm0 0c0,0 0,0 0,0 0,0 0,0 0,0zm0 0l0 0 0 0zm-1 0c0,0 0,0 0,0 0,0 0,0 0,0zm0 0c0,0 0,0 0,0 0,0 0,0 0,0zm0 0c0,0 0,0 0,0 0,0 0,0 0,0zm0 0c0,0 0,0 0,0 0,0 0,0 0,0zm0 0l0 0 0 0 0 0zm0 0l0 0 0 0zm58 -57l0 0 0 0zm0 0l0 0 0 0zm0 0c0,0 0,0 0,0 0,0 0,0 0,0zm0 0l0 0 0 0zm0 -1c0,0 0,0 0,0 0,0 0,0 0,0zm0 0c0,0 0,0 0,0 0,0 0,0 0,0zm0 0c0,0 0,0 0,0 0,0 0,0 0,0zm0 0c0,0 0,0 0,0 0,0 0,0 0,0zm0 0l0 0 0 0 0 0zm0 -1l0 0 0 0zm0 0l0 0 0 0zm-98 41c1,1 2,2 2,2 0,0 0,0 -1,-1 0,0 0,0 -1,-1zm80 -80c1,1 1,1 1,1 1,1 1,1 1,1 0,0 -1,-1 -2,-2z"/>
    </g>
    <g>
     <path class="fil1" d="M372 195c-3,1 -6,2 -10,2 -7,0 -14,-3 -20,-9 -5,-5 -8,-12 -8,-20 0,-7 3,-14 8,-20 6,-5 13,-8 20,-8 4,0 7,1 10,2 20,7 30,-14 30,-14 -22,-22 -58,-22 -80,0 -11,11 -16,26 -16,40 0,15 5,29 16,40 22,22 58,22 80,0 0,0 -10,-20 -30,-13zm30 -67c0,0 0,0 0,0l0 0 0 0zm-40 69l0 0 0 0zm0 0c0,0 0,0 0,0 0,0 0,0 0,0zm-1 0c1,0 1,0 1,0 0,0 0,0 -1,0zm0 0c0,0 0,0 0,0l0 0zm0 0c0,0 0,0 0,0l0 0zm0 0c0,0 0,0 0,0 0,0 0,0 0,0zm0 0c0,0 0,0 0,0 0,0 0,0 0,0zm0 0l0 0 0 0zm-1 0c1,0 1,0 1,0 0,0 0,0 -1,0zm0 0c0,0 0,0 0,0 0,0 0,0 0,0zm12 -2c0,0 0,0 0,0 -3,1 -6,2 -10,2l0 0 0 0c4,0 7,-1 10,-2 0,0 0,0 0,0zm9 -2l0 0 0 0zm0 0l0 0 0 0zm0 0c0,0 0,0 0,0 0,0 0,0 0,0zm-1 0l0 0 0 0zm0 0c0,0 0,0 0,0 0,0 0,0 0,0zm0 0l0 0 0 0zm0 0c0,0 0,0 0,0 0,0 0,0 0,0zm0 0c0,0 0,0 0,0 0,0 0,0 0,0zm0 0l0 0 0 0zm0 0c-1,0 -2,0 -3,1 1,-1 2,-1 3,-1 0,0 0,0 0,0 0,0 0,0 0,0zm-37 -4c0,0 0,0 0,0 5,5 11,7 17,8 -6,-1 -12,-3 -17,-8zm-8 -11c2,3 4,6 6,9 0,0 0,0 0,0 -2,-3 -4,-6 -6,-9zm0 0c0,0 0,0 0,0 0,0 0,0 0,0zm0 -1c0,1 0,1 0,1 0,0 0,0 0,-1zm0 0l0 0 0 0zm0 0c0,0 0,0 0,0 0,0 0,0 0,0zm0 0c0,0 0,0 0,0 0,0 0,0 0,0zm0 0c0,0 0,0 0,0 0,0 0,0 0,0zm0 0c0,0 0,0 0,0 0,0 0,0 0,0zm0 0c0,0 0,0 0,0 0,0 0,0 0,0zm0 -1c0,0 0,0 0,0 0,0 0,0 0,0zm0 0c0,0 0,0 0,0 0,0 0,0 0,0zm0 0c0,0 0,0 0,0 0,0 0,0 0,0zm0 0c0,0 0,0 0,0 0,0 0,0 0,0zm0 0c0,0 0,0 0,0 0,0 0,0 0,0zm0 0c0,0 0,0 0,0 0,0 0,0 0,0zm0 -1l0 0 0 0zm0 0c0,0 0,0 0,0 0,0 0,0 0,0zm0 0c0,0 0,0 0,0 0,0 0,0 0,0zm0 0c0,0 0,0 0,0 0,0 0,0 0,0zm0 0c0,0 0,0 0,0 0,0 0,0 0,0zm-1 0c0,0 1,0 1,0 0,0 -1,0 -1,0zm0 -1c0,0 0,0 0,0 0,0 0,0 0,0zm0 0c0,0 0,0 0,0 0,0 0,0 0,0zm0 0c0,0 0,0 0,0 0,0 0,0 0,0zm0 0l0 0 0 0zm0 -1l0 0 0 0zm0 0c0,0 0,0 0,0 0,0 0,0 0,0zm0 0c0,0 0,0 0,0 0,0 0,0 0,0zm0 0l0 0 0 0zm0 0c0,0 0,0 0,0 0,0 0,0 0,0zm0 -1l0 0 0 0zm0 0c0,0 0,0 0,0 0,0 0,0 0,0zm0 0c0,0 0,0 0,0 0,0 0,0 0,0zm0 0c0,0 0,0 0,0 0,0 0,0 0,0zm0 0c0,0 0,0 0,0 0,0 0,0 0,0zm0 0c0,0 0,0 0,0l0 0zm0 -1c0,0 0,0 0,0 0,0 0,0 0,0zm0 0c0,0 0,0 0,0 0,0 0,0 0,0zm0 0c0,0 0,0 0,0 0,0 0,0 0,0zm0 0c0,0 0,0 0,0 0,0 0,0 0,0zm0 -1c0,0 0,0 0,0 0,0 0,0 0,0zm0 0c0,0 0,0 0,0 0,0 0,0 0,0zm0 0c0,0 0,0 0,0 0,0 0,0 0,0zm0 0c0,0 0,0 0,0 0,0 0,0 0,0zm0 0c0,0 0,0 0,0 0,0 0,0 0,0zm0 0c0,0 0,0 0,0 0,0 0,0 0,0zm0 -1c0,0 0,0 0,0 0,0 0,0 0,0zm0 0c0,0 0,0 0,0 0,0 0,0 0,0zm0 0c0,0 0,0 0,0 0,0 0,0 0,0zm0 0c0,0 0,0 0,0 0,0 0,0 0,0zm0 0c0,0 0,0 0,0 0,0 0,0 0,0zm0 0c0,0 0,0 0,0 0,0 0,0 0,0zm66 -43c0,0 0,1 0,1 1,0 1,1 2,1 0,0 0,0 0,0 -1,0 -1,-1 -2,-2zm17 81c0,1 1,1 1,1l0 0c0,0 0,0 0,0 0,1 0,1 0,1 0,0 0,0 0,0 0,0 1,0 1,0l0 0c0,0 0,0 0,0 0,0 -1,-1 -1,-1 0,0 -1,-1 -1,-1zm-96 0c0,1 1,1 1,1 0,1 1,1 1,1 0,0 -1,0 -1,-1 0,0 -1,0 -1,-1zm74 -7c1,0 1,1 1,1 1,0 1,1 1,1 0,-1 -1,-1 -2,-2z"/>
    </g>
    <path class="fil1" d="M177 112c-15,0 -28,6 -38,15 -11,10 -18,25 -18,41l0 57c15,0 28,-13 28,-28l0 -29c0,-13 9,-23 21,-27 0,0 1,0 1,0 0,0 0,0 1,0l0 0c11,-4 20,-15 20,-28l0 -1 -15 0zm-54 111c-1,0 -2,0 -2,0l0 2c0,0 1,0 2,0l0 -2zm69 -111l-2 0c0,0 0,1 0,2l2 0c0,0 0,0 0,-1l0 -1z"/>
    <g>
     <path class="fil1" d="M57 112c-32,0 -57,25 -57,56l0 85c16,0 28,-12 28,-28l0 -8c9,5 18,8 29,8 31,0 56,-25 56,-57 0,-31 -25,-56 -56,-56zm0 85c-16,0 -29,-13 -29,-29 0,-15 13,-28 29,-28 15,0 28,13 28,28 0,16 -13,29 -28,29zm2 -85l0 0 0 0zm-1 0l0 0 0 0zm0 0c0,0 0,0 0,0 0,0 0,0 0,0l0 0zm0 0c0,0 0,0 0,0 0,0 0,0 0,0zm0 0c0,0 0,0 0,0 0,0 0,0 0,0zm0 0c0,0 0,0 0,0 0,0 0,0 0,0zm0 0c0,0 0,0 0,0 0,0 0,0 0,0zm-1 0c0,0 0,0 0,0 0,0 0,0 0,0zm0 0l0 0 0 0zm0 0l0 0 0 0zm0 0c0,0 0,0 0,0 0,0 0,0 0,0zm-1 85c0,0 0,0 0,0 0,0 0,0 0,0zm0 0c0,0 0,0 0,0 0,0 0,0 0,0zm0 0c0,0 0,0 0,0 0,0 0,0 0,0zm0 0c0,0 0,0 0,0 0,0 0,0 0,0zm0 0c0,0 0,0 0,0 0,0 0,0 0,0zm-1 0c0,0 0,0 1,0 -1,0 -1,0 -1,0zm0 0c0,0 0,0 0,0 0,0 0,0 0,0zm0 0c0,0 0,0 0,0 0,0 0,0 0,0zm-17 -8c0,0 0,0 0,0 4,4 10,7 17,8 -7,-1 -13,-4 -17,-8zm47 -21c0,16 -13,29 -28,29l-1 0 1 0c15,0 28,-13 28,-29zm0 0l0 0 0 0zm0 0c0,0 0,0 0,0 0,0 0,0 0,0zm0 0c0,0 0,0 0,0 0,0 0,0 0,0zm0 0c0,0 0,0 0,0 0,0 0,0 0,0zm0 0c0,0 0,0 0,0 0,0 0,0 0,0zm0 -1c0,0 0,0 0,1 0,-1 0,-1 0,-1zm0 0c0,0 0,0 0,0 0,0 0,0 0,0zm0 0c0,0 0,0 0,0 0,0 0,0 0,0zm0 0c0,0 0,0 0,0 0,0 0,0 0,0zm0 -1c0,1 0,1 0,1 0,0 0,0 0,-1zm0 0c0,0 0,0 0,0 0,0 0,0 0,0zm-7 -17c4,5 6,11 7,17 -1,-6 -3,-12 -7,-17l0 0zm35 19l0 0 0 0zm0 0l0 0 0 0zm0 0c0,0 0,0 0,0 0,0 0,0 0,0zm0 0c0,0 0,0 0,0 0,0 0,0 0,0zm0 -1c0,0 0,0 0,0 0,0 0,0 0,0zm0 0c0,0 0,0 0,0 0,0 0,0 0,0zm0 0c0,0 0,0 0,0 0,0 0,0 0,0zm0 0c0,0 0,0 0,0 0,0 0,0 0,0zm0 0c0,0 0,0 0,0 0,0 0,0 0,0zm0 -1c0,0 0,0 0,0 0,0 0,0 0,0zm0 0l0 0 0 0zm0 0c0,0 0,0 0,0 0,0 0,0 0,0l0 0zm-111 85c-1,0 -1,0 -2,0l0 2c1,0 1,0 2,0l0 -2zm94 -124c0,1 0,1 1,1 0,1 0,1 1,1 -1,0 -1,0 -1,-1 0,0 0,0 0,0 0,0 0,0 0,0 -1,0 -1,0 -1,-1zm-68 43c1,7 3,13 8,17 0,0 0,0 0,0 -5,-4 -7,-10 -8,-17zm0 0c0,0 0,0 0,0 0,0 0,0 0,0zm0 0c0,0 0,0 0,0 0,0 0,0 0,0zm0 -1c0,1 0,1 0,1 0,0 0,0 0,-1zm0 0c0,0 0,0 0,0 0,0 0,0 0,0zm0 0c0,0 0,0 0,0 0,0 0,0 0,0zm0 0c0,0 0,0 0,0 0,0 0,0 0,0zm0 0c0,0 0,0 0,0 0,0 0,0 0,0zm0 0c0,0 0,0 0,0 0,0 0,0 0,0zm0 -1l0 0c0,0 0,0 0,1 0,-1 0,-1 0,-1zm31 -28c6,1 12,3 17,7 0,0 0,0 0,0 -5,-4 -11,-6 -17,-7zm-1 0l1 0 -1 0zm0 0c0,0 0,0 0,0 0,0 0,0 0,0zm0 0c0,0 0,0 0,0 0,0 0,0 0,0zm0 0c0,0 0,0 0,0 0,0 0,0 0,0zm-1 0c1,0 1,0 1,0 0,0 0,0 -1,0zm0 0c0,0 0,0 0,0 0,0 0,0 0,0zm0 0c0,0 0,0 0,0 0,0 0,0 0,0zm0 0c0,0 0,0 0,0 0,0 0,0 0,0zm0 0c0,0 0,0 0,0 0,0 0,0 0,0zm0 0c0,0 0,0 0,0 0,0 0,0 0,0z"/>
    </g>
   </g>
  </g>
 </g>
</svg>
